PathFileType	4	(X/Y/Z)	Apose_0-50.trc
DataRate	CameraRate	NumFrames	NumMarkers	Units	OrigDataRate	OrigDataStartFrame	OrigNumFrames
30	30	9	22	m	30	0	50
Frame#	Time	Hip			RHip			RKnee			RAnkle			RBigToe			RSmallToe			RHeel			LHip			LKnee			LAnkle			LBigToe			LSmallToe			LHeel			Neck			Head			Nose			RShoulder			RElbow			RWrist			LShoulder			LElbow			LWrist		
		X1	Y1	Z1	X2	Y2	Z2	X3	Y3	Z3	X4	Y4	Z4	X5	Y5	Z5	X6	Y6	Z6	X7	Y7	Z7	X8	Y8	Z8	X9	Y9	Z9	X10	Y10	Z10	X11	Y11	Z11	X12	Y12	Z12	X13	Y13	Z13	X14	Y14	Z14	X15	Y15	Z15	X16	Y16	Z16	X17	Y17	Z17	X18	Y18	Z18	X19	Y19	Z19	X20	Y20	Z20	X21	Y21	Z21	X22	Y22	Z22
1	0.0333333333333333	0.060765647164465385	0.9189239313925341	0.36925039517744723	0.05259053364407127	0.894289070908378	0.48109037432987056	0.018549838830137888	0.5022536336020034	0.49959241824920353	-0.0012410437365179617	0.10293294944071132	0.5117480220004218	0.20117209808688835	0.02925979777372444	0.5467752372038951	0.1515368144154909	0.021463881047925407	0.6052588848325402	-0.0505254396158052	0.02603507003400089	0.5006228138041394	0.05267525711503966	0.8921718164555092	0.2565338588348765	0.041805470001362706	0.49582911669694407	0.22077871876600993	0.007331748868821719	0.12232131920300249	0.2088707322732927	0.20359366859725034	0.03386204497895128	0.188145504579969	0.15905875613846057	0.02948975387959364	0.1291799060638806	-0.05795722727896673	0.028601843239802166	0.20501236940711015	0.05607727333267584	1.5735513899538718	0.3566715717700003	0.16490822224703103	1.8318549132591089	0.3464130093074724	0.20779557027695414	1.657539489752332	0.33020111944862274	0.0372129833281762	1.483662610773744	0.5569812834980852	0.10098876901157619	1.2356205308169013	0.7270295774488675	0.18007018116935272	1.036948768267622	0.8936837976907916	-0.00032871775583779065	1.4700335930160318	0.16703207461231875	0.017705471873562546	1.230968643054063	0.018182464804201055	0.0859801368640741	1.0242617931984794	-0.1343459530670396
2	0.0666666666666666	0.05648660978614249	0.9190849325541152	0.3682781237434779	0.048982773149878034	0.8927486056049895	0.4794513335002507	0.0158804729739187	0.5033362303882585	0.5005109613543188	-0.0039723086542041396	0.10376078381562812	0.5147655479612555	0.20342337455086038	0.033414883217367304	0.5534484400686269	0.15149315890172002	0.025167005247055972	0.6102558785236332	-0.047965714395470274	0.029882135032309083	0.4995987522738796	0.04938803424030549	0.8903755470678585	0.2558366528788905	0.03609933797505159	0.500462111127499	0.22372423585849824	0.006977343455514765	0.12012413536977837	0.21054983205116717	0.20722834693017136	0.03525251163370478	0.1871259694801364	0.16097150157503026	0.032529887857171584	0.1297260970753804	-0.05001100428906638	0.03446801450062444	0.21286292480169666	0.05784060410320953	1.5712475802574568	0.3586401206691062	0.1870093756012986	1.812107961129333	0.3343368403593089	0.2502327839538939	1.6474036719887621	0.3377037330072316	0.036639651812840936	1.4844500804325051	0.5551971497554121	0.0982340756672541	1.2352406374611293	0.7270107352915415	0.17286308552003146	1.0371950744046545	0.8942835884393192	0.004177646398000491	1.4711629101829802	0.16372006029860334	0.015233141412666084	1.228122040995078	0.014368664884106208	0.07858696404205648	1.020141532847227	-0.13699582546202171
3	0.1	0.052337508987355646	0.9191447604285586	0.36709897153995263	0.0452529344081888	0.8915038366722122	0.477926424338142	0.013250054299408242	0.5041828821347597	0.501182022346126	-0.006373280003836613	0.1043138203210921	0.5173188610837639	0.2054831271381067	0.0369089680103857	0.5591543796440631	0.1517763030432409	0.028229941489243664	0.6142903052306982	-0.04579695978094383	0.032841844043106125	0.4986440698873589	0.045822908809579246	0.8889715510613253	0.254873017711609	0.031675839603243744	0.5038297557118223	0.22554763089802968	0.006723087008820537	0.11775426973227995	0.21178991989889187	0.21054512074443446	0.03633453292929154	0.18595401863921635	0.16287477834406633	0.03497640220170745	0.1303224744360665	-0.0427836895167938	0.03939024964770875	0.21989071970948112	0.0599225691059476	1.568931596365267	0.36019958542114083	0.21156848651822882	1.7944233314895985	0.32241645721673057	0.2861692523441108	1.6372520799091823	0.34400531254925115	0.03618838203134622	1.4853757847563944	0.5533950149973441	0.09525756225345466	1.2347460449823409	0.7269451991532941	0.16493865724767565	1.038034441662029	0.8951584168614843	0.008301689766547216	1.4723764473112888	0.16059162181841038	0.012580741177785716	1.2260222469642323	0.010955059466943839	0.0712731162742436	1.016657938216755	-0.1394030422113906
4	0.1333333333333333	0.048593625301452364	0.9190580282397992	0.36572143736653767	0.04160268159429192	0.8907657713895492	0.4766458819380681	0.010794076299488769	0.5046611048414591	0.5015344948882403	-0.008275744870776817	0.10441713159753463	0.5191700903841798	0.20714642491153268	0.03936466056909813	0.5632670816375035	0.15237373250382008	0.030308397410637438	0.6168939923991228	-0.04440687159239445	0.03449527267498386	0.497938274060947	0.04209475648133087	0.8882212405085594	0.25357035670471983	0.02890102385289312	0.5052035082499203	0.22580609908586396	0.006579015576776881	0.11536699179950669	0.21240988843468683	0.21323120561034317	0.037018661280344416	0.18471256348894305	0.1645640220582637	0.03654170939203326	0.13089013351099882	-0.03704895325605133	0.042701208724728636	0.22522805007722524	0.062208554496605104	1.5667229974564685	0.36113411124135786	0.23910806846551838	1.7803721316955357	0.31051435110996384	0.3119643567506497	1.6278390150935278	0.34845878690219717	0.03587776729753033	1.4864783515505264	0.5516486561531283	0.09209133524008388	1.2340105954592466	0.7268059787795373	0.15648223568930197	1.039601522529443	0.8963586820512766	0.011717481892513584	1.4736175455036635	0.1578819740231684	0.010057777931378162	1.2252111562643098	0.00836675806888857	0.06455534848286971	1.0141633774944254	-0.14133949536893287
5	0.1666666666666666	0.0455401963987244	0.9188235902784696	0.36434584201565234	0.038391922904203846	0.8905789583267648	0.4757111541502509	0.008712781335629796	0.5047284879839113	0.5016564848095343	-0.009695169448535448	0.10402373663588788	0.5202823686152546	0.20827300020675524	0.04075077359132279	0.5656934351506908	0.15301348391083242	0.031404891749484236	0.6181429212115879	-0.04391385768550581	0.034954950345574234	0.49758775927431315	0.03859587000670192	0.8881736970563289	0.2520739401684233	0.02705102116641408	0.5047025405484978	0.22485776450637487	0.006420872429529065	0.11335738739419059	0.21250924396696086	0.2151082593033793	0.037459966542615235	0.18361717197934896	0.16579565422508202	0.037370024546199455	0.13124344811894859	-0.0331787313988646	0.0442963741894928	0.22836139377642986	0.06435367365209295	1.5648135983945064	0.36143871833285873	0.26764532616784364	1.770718636574999	0.2992408134238413	0.32748485579000675	1.6201359361138148	0.351100915786544	0.035625856876318376	1.487678612184043	0.5500399564579972	0.08895923970169035	1.2330507102973847	0.7265392994014661	0.14844818162544807	1.0415019606626337	0.8976694483251391	0.01427476871313865	1.4747259160030723	0.15579013714054968	0.008219207907690651	1.2256885006387994	0.006811753410854817	0.059111387559187045	1.0125922717519218	-0.14271492838896022
6	0.2	0.04327412725431139	0.9184738110225895	0.3631623655850476	0.03579912153505386	0.8908538918062001	0.47516227509810405	0.007146834131959528	0.5044125906176599	0.5016626981913337	-0.010741470019496347	0.10323328306339102	0.5206885833045293	0.20882567831402507	0.0412417694218783	0.5667815015996338	0.15343925814828602	0.031731193272917464	0.6183765694283495	-0.04410762608010075	0.03462039857036913	0.49754680395714695	0.03562860655351876	0.8887093646073807	0.2506209225961163	0.0251260096370836	0.5032920662997776	0.22352263426355165	0.006038430601472351	0.11215947972941803	0.21232265160780897	0.21620356501900453	0.037923694993759104	0.18278474086230645	0.16649354368805025	0.037870688094882955	0.13120966011649307	-0.030965420905225916	0.04450963145770663	0.22935187222042855	0.06621067932007661	1.5633954062953777	0.361160208994427	0.2930042782959583	1.7654764871062716	0.290835056117646	0.33486232178741004	1.6145631556448896	0.3523866019054653	0.035339359602243464	1.4888495766497158	0.5485584657010012	0.08605061796071452	1.2320327842664072	0.7261067616049234	0.14170250853880587	1.0431917788182237	0.8988188069098816	0.016064740858049452	1.4755716031563566	0.15434350884997006	0.007338501334095898	1.2268468690207446	0.006129165088068374	0.055364858890229185	1.0116191350270516	-0.1436155890245543
7	0.2333333333333333	0.041698437795790105	0.9181075848271643	0.362219074063682	0.03376563387701835	0.8914851709209095	0.4749905102127727	0.0061380766698389275	0.5037807138240225	0.5016218249704483	-0.011509274117103424	0.10226892239075132	0.5204604183723037	0.20886544409829977	0.041081568164157756	0.5670334218841957	0.1535602457003107	0.03155045003933052	0.6179650952846818	-0.0447032413198561	0.03391632245604176	0.49771643164830526	0.03325248589908704	0.8896661630518139	0.2494066964015698	0.022750634218485978	0.5022913065605645	0.22258137725496982	0.005264691253454492	0.11213843834526863	0.2121048654092694	0.2167014749469625	0.03864769801213822	0.18217501989889837	0.16675932530303253	0.038435794790168204	0.13074387484207567	-0.029948385086199195	0.043725467949623786	0.22864999535061575	0.06789309790286989	1.5626173518590083	0.36029437790454416	0.3106489023424799	1.7641369941920366	0.2880595873388909	0.33693218860781415	1.6109761045653166	0.35283760743480935	0.03499814843686472	1.4898968021445658	0.5471580425091728	0.08343838157325235	1.231230482784758	0.7255444270650953	0.1365046507461763	1.044355900258268	0.899644564823344	0.017333110476886553	1.4761305197800179	0.1534035458082277	0.007343566583282272	1.227956419560303	0.005984586442868075	0.05340055834411112	1.010914951473363	-0.1441984869820911
8	0.2666666666666666	0.04061639194103683	0.9178821345558902	0.36148339717361183	0.03215152484513688	0.8923858366944641	0.47515036574637814	0.005609207817120696	0.5029774035006194	0.5015620209087371	-0.01201803141222298	0.10140188013052324	0.5197610459197651	0.20858004061956964	0.04056472815322324	0.5668759121755039	0.1534467494688419	0.031088749870470358	0.6172314066909502	-0.04555897835421326	0.03315327213603231	0.4980350395160576	0.03141569525931809	0.8908848709910071	0.24854720690692653	0.02025818381381602	0.5025045244570886	0.22234458964890064	0.00414090523246787	0.1133002086467723	0.21203997119467904	0.21682965150418948	0.03970577483840501	0.18164932417414514	0.16675887071418383	0.039228635305076566	0.12995020699759008	-0.02968441703083075	0.042230954509028786	0.22689355674697176	0.06957678103188573	1.5625811505815266	0.3588296128960277	0.3188931566656171	1.7654897820768398	0.29119954723482055	0.3361961195088375	1.6089812013908724	0.3528400707605239	0.03466015275488563	1.4907740714503361	0.5458643559192156	0.08115545738208614	1.2309947008647795	0.7249234451743108	0.13261450189980706	1.0450110545326428	0.9000378593046794	0.018315088325858535	1.476444313946199	0.1527706271818076	0.008032995761233083	1.2285798735927487	0.006097868909456692	0.05306697231807904	1.0102941166840598	-0.14456312376801497
9	0.3	0.03979527691804738	0.9179134578761815	0.36094501476450724	0.030850497414770788	0.8934203990212142	0.4755346372403329	0.005300743026024889	0.502335273967951	0.5014866149367508	-0.012254725366795888	0.10089281288182084	0.5188524095888813	0.20821124514856418	0.0400110860449185	0.5665945260184199	0.15323639764354208	0.030537211216636183	0.6164239588375352	-0.046687557181918846	0.032511553017032145	0.4985404253806181	0.030112174982655834	0.8921514660118169	0.24807827736637023	0.018258307290493596	0.503707854082319	0.22256697592474214	0.002961931073253563	0.11506660609763596	0.21214139476917968	0.21673292184456736	0.04090443362862446	0.18106876705283764	0.16660436267057271	0.04010627493779523	0.12900251365637205	-0.029846625019927357	0.04033156034340538	0.22476355268392192	0.07130997754787641	1.563330830616973	0.3568647701705966	0.31997892040513387	1.7675192081621223	0.29659955863241644	0.3344033537009146	1.6081500682613565	0.3526129273971483	0.03439261548171243	1.4914540097391948	0.5447828614302562	0.07926174144861618	1.2315008863950772	0.724321402662868	0.12963121802093033	1.0454019382154576	0.8998888755078875	0.019141132816195713	1.476534798843542	0.15225492291485587	0.009177259754482673	1.2285757951333338	0.006274584757102144	0.05409583947920036	1.009765087061534	-0.14469391252611327
